<mxfile host="app.diagrams.net" modified="2023-08-09T03:23:02.791Z" agent="Mozilla/5.0 (X11; Linux x86_64) AppleWebKit/537.36 (KHTML, like Gecko) Chrome/115.0.0.0 Safari/537.36" version="21.6.7" etag="TsmwJAWEcsZ9uD7eENqG" type="github">
  <diagram name="PÃ¡gina-1" id="fi3-D6xnlyi9QdbmfNRW">
    <mxGraphModel>
      <root>
        <mxCell id="0" />
        <mxCell id="1" parent="0" />
      </root>
    </mxGraphModel>
  </diagram>
</mxfile>
